<?xml version="1.0" encoding="UTF-8" standalone="no"?>
<!-- Uploaded to: SVG Repo, www.svgrepo.com, Generator: SVG Repo Mixer Tools -->

<svg
   width="600"
   height="650"
   viewBox="0 0 24 26"
   fill="none"
   version="1.1"
   id="svg5"
   sodipodi:docname="tiktok_color.svg"
   inkscape:version="1.4 (86a8ad7, 2024-10-11)"
   xmlns:inkscape="http://www.inkscape.org/namespaces/inkscape"
   xmlns:sodipodi="http://sodipodi.sourceforge.net/DTD/sodipodi-0.dtd"
   xmlns="http://www.w3.org/2000/svg"
   xmlns:svg="http://www.w3.org/2000/svg">
  <defs
     id="defs5" />
  <sodipodi:namedview
     id="namedview5"
     pagecolor="#505050"
     bordercolor="#ffffff"
     borderopacity="1"
     inkscape:showpageshadow="0"
     inkscape:pageopacity="0"
     inkscape:pagecheckerboard="1"
     inkscape:deskcolor="#505050"
     inkscape:zoom="1"
     inkscape:cx="283"
     inkscape:cy="358.5"
     inkscape:window-width="1920"
     inkscape:window-height="1057"
     inkscape:window-x="1912"
     inkscape:window-y="-8"
     inkscape:window-maximized="1"
     inkscape:current-layer="svg5" />
  <path
     d="m 4.45095,16.79261 c 0.15628,-1.2939 0.68695,-2.0183 1.68695,-2.7609 1.4309,-1.0058 3.2182,-0.4369 3.2182,-0.4369 v -3.3751 c 0.4346,-0.0112 0.8693,0.0146 1.299,0.0769 v 4.3435 c 0,0 -1.7868,-0.5689 -3.2176,0.4374 -0.9995,0.7421 -1.53127,1.4671 -1.687,2.761 -0.00488,0.7026 0.12697,1.621 0.7342,2.4151 -0.1502,-0.077 -0.3032,-0.1647 -0.4591,-0.2631 -1.33753,-0.8982 -1.58116,-2.2456 -1.57465,-3.1979 z M 18.0352,3.97899 C 17.0509,2.9004 16.6786,1.8114 16.5441,1.0464 h 1.2382 c 0,0 -0.2469,2.00585 1.5524,3.97843 l 0.025,0.02652 C 18.8747,4.74631 18.43,4.38625 18.0352,3.97899 Z M 24,7.03691 v 4.2561 c 0,0 -1.58,-0.0618 -2.7493,-0.3593 -1.6328,-0.4161 -2.6822,-1.0542 -2.6822,-1.0542 0,0 -0.7249,-0.455 -0.7835,-0.4867 v 8.7889 c 0,0.4894 -0.134,1.7115 -0.5426,2.7308 -0.5334,1.3335 -1.3565,2.2087 -1.5079,2.3876 0,0 -1.0011,1.1831 -2.7673,1.9799 -1.592,0.7187 -2.9898,0.7005 -3.4076,0.7187 0,0 -2.4162,0.0957 -4.59045,-1.3173 -0.47017,-0.3115 -0.90904,-0.6642 -1.31095,-1.0537 l 0.01086,0.0078 c 2.17477,1.413 4.59044,1.3173 4.59044,1.3173 0.4184,-0.0182 1.8161,0 3.4076,-0.7187 1.7646,-0.7967 2.7673,-1.9798 2.7673,-1.9798 0.1498,-0.1789 0.9767,-1.0542 1.5079,-2.3881 0.4075,-1.0188 0.5426,-2.2415 0.5426,-2.7308 v -8.7879 c 0.0586,0.0322 0.783,0.4872 0.783,0.4872 0,0 1.05,0.6387 2.6827,1.0542 1.1698,0.2975 2.7494,0.3594 2.7494,0.3594 V 6.91315 c 0.5404,0.12116 1.0011,0.15396 1.3,0.12376 z"
     fill="#ee1d52"
     id="path1" />
  <path
     d="m 22.700902,6.91315 v 3.33406 c 0,0 -1.5796,-0.0619 -2.7494,-0.3593 -1.6327,-0.4161 -2.6827,-1.0542 -2.6827,-1.0542 0,0 -0.7244,-0.455 -0.783,-0.4873 v 8.79 c 0,0.4894 -0.134,1.712 -0.5426,2.7308 -0.5334,1.334 -1.3565,2.2092 -1.5079,2.3881 0,0 -1.0016,1.1831 -2.7673,1.9799 -1.5915,0.7187 -2.9892,0.7005 -3.4076,0.7187 0,0 -2.41567,0.0957 -4.59045,-1.3173 l -0.01085,-0.0078 c -0.22961,-0.2224 -0.44574,-0.4571 -0.64733,-0.7031 -0.694,-0.8462 -1.1194,-1.8468 -1.2263,-2.1323 -1.8e-4,-0.0012 -1.8e-4,-0.0024 0,-0.0036 -0.172,-0.4961 -0.53338,-1.6876 -0.484,-2.8416 0.08736,-2.036 0.8036,-3.2857 0.99297,-3.5988 0.50153,-0.8537 1.15384,-1.6176 1.92789,-2.2575 0.68305,-0.5523 1.45727,-0.9917 2.29087,-1.3002 0.9012,-0.3622 1.8662,-0.5564 2.8433,-0.572 v 3.3751 c 0,0 -1.7874,-0.5668 -3.2177,0.4369 -1.00001,0.7426 -1.53068,1.467 -1.68695,2.7609 -0.00651,0.9523 0.23712,2.2997 1.57355,3.1984 0.1559,0.0988 0.3089,0.1865 0.4591,0.2631 0.2334,0.3035 0.5176,0.568 0.841,0.7827 1.3055,0.8264 2.3994,0.8841 3.7983,0.3474 0.9327,-0.3588 1.6348,-1.1675 1.9604,-2.0636 0.2046,-0.5595 0.2019,-1.1228 0.2019,-1.7052 V 1.0464 h 3.2556 c 0.1346,0.765 0.5068,1.854 1.4911,2.93259 0.3948,0.40726 0.8396,0.76732 1.3245,1.07236 0.1433,0.14821 0.8758,0.88097 1.8161,1.33082 0.4862,0.23253 0.9988,0.41069 1.5275,0.53098 z"
     fill="#000000"
     id="path2" />
  <path
     d="m 4.48926,22.7568 v 0.0026 l 0.08078,0.219 C 4.56076,22.9529 4.53074,22.8754 4.48926,22.7568 Z"
     fill="#69c9d0"
     id="path3" />
  <path
     d="m 6.5128024,10.791606 c -0.83361,0.3086 -1.60782,0.748 -2.29088,1.3002 -0.77429,0.6414 -1.42644,1.4069 -1.92734,2.2622 -0.18937,0.3121 -0.90561,1.5628 -0.99297,3.5988 -0.04938,1.154 0.312,2.3455 0.484,2.8416 -1.8e-4,0.0012 -1.8e-4,0.0024 0,0.0036 0.10852,0.283 0.5323,1.2835 1.2263,2.1323 0.20159,0.246 0.41772,0.4808 0.64733,0.7031 -0.73567,-0.4877 -1.39178,-1.0772 -1.94688,-1.7495 -0.68803,-0.8388 -1.11235,-1.829 -1.22304,-2.1213 -1.3e-4,-0.0021 -1.3e-4,-0.0042 0,-0.0062 v -0.0037 c -0.17255,-0.4956 -0.53501,-1.6876 -0.48455,-2.8431 0.08736,-2.036 0.80361,-3.2857 0.99298,-3.5988 0.50075,-0.8555 1.15292,-1.621 1.92734,-2.2622 0.68291,-0.5525 1.45716,-0.9919 2.29089,-1.3002003 0.52004,-0.2068 1.06182,-0.3593 1.61592,-0.455 0.835,-0.1397 1.6879,-0.1519 2.5269,-0.0359 v 0.9621003 c -0.978,0.0153 -1.944,0.2095 -2.846,0.572 z"
     fill="#69c9d0"
     id="path4" />
  <path
     d="M 16.5438,1.04635 H 13.2881 V 17.6159 c 0,0.5824 0,1.1441 -0.2018,1.7052 -0.3288,0.8956 -1.0283,1.7042 -1.9605,2.0631 -1.3993,0.5388 -2.4932,0.479 -3.7982,-0.3474 -0.324,-0.2138 -0.6089,-0.4774 -0.8432,-0.7801 1.1118,0.5684 2.1069,0.5585 3.3397,0.0843 0.9317,-0.3589 1.6322,-1.1676 1.9599,-2.0636 0.2051,-0.5596 0.2024,-1.1228 0.2024,-1.7048 V 0 h 4.4955 c 0,0 -0.0504,0.41188 0.0619,1.04635 z m 6.1564,4.94469 V 6.9131 C 22.1725,6.79263 21.6609,6.61447 21.1755,6.38213 20.2352,5.93228 19.5026,5.19952 19.3594,5.0513 c 0.1662,0.1046 0.3387,0.19976 0.5165,0.28499 1.1433,0.5471 2.2692,0.7104 2.8243,0.65475 z"
     fill="#69c9d0"
     id="path5" />
</svg>
