<?xml version="1.0" encoding="UTF-8" standalone="no"?>
<svg
   width="64"
   height="44.860001"
   version="1.1"
   id="svg2"
   sodipodi:docname="youtube_color.svg"
   inkscape:version="1.4 (86a8ad7, 2024-10-11)"
   xmlns:inkscape="http://www.inkscape.org/namespaces/inkscape"
   xmlns:sodipodi="http://sodipodi.sourceforge.net/DTD/sodipodi-0.dtd"
   xmlns="http://www.w3.org/2000/svg"
   xmlns:svg="http://www.w3.org/2000/svg">
  <defs
     id="defs2" />
  <sodipodi:namedview
     id="namedview2"
     pagecolor="#505050"
     bordercolor="#ffffff"
     borderopacity="1"
     inkscape:showpageshadow="0"
     inkscape:pageopacity="0"
     inkscape:pagecheckerboard="1"
     inkscape:deskcolor="#505050"
     inkscape:zoom="13.359375"
     inkscape:cx="32"
     inkscape:cy="32"
     inkscape:window-width="1920"
     inkscape:window-height="1057"
     inkscape:window-x="1912"
     inkscape:window-y="-8"
     inkscape:window-maximized="1"
     inkscape:current-layer="svg2" />
  <path
     d="M 62.603,7.026 A 8.06,8.06 0 0 0 56.934,1.357 C 51.964,0 31.96,0 31.96,0 31.96,0 11.955,0.04 6.984,1.397 A 8.06,8.06 0 0 0 1.315,7.066 C 0,12.037 0,22.43 0,22.43 c 0,0 0,10.393 1.356,15.404 a 8.06,8.06 0 0 0 5.669,5.669 C 11.995,44.86 32,44.86 32,44.86 c 0,0 20.005,0 24.976,-1.356 a 8.06,8.06 0 0 0 5.669,-5.669 C 64,32.864 64,22.43 64,22.43 c 0,0 -0.04,-10.393 -1.397,-15.404 z"
     fill="#ff0000"
     id="path1" />
  <path
     d="M 25.592,32.042 42.187,22.43 25.591,12.818 Z"
     fill="#ffffff"
     id="path2" />
</svg>
