<?xml version="1.0" encoding="UTF-8" standalone="no"?>
<svg
   width="64"
   height="44.859001"
   version="1.1"
   id="svg2"
   sodipodi:docname="youtube_mono.svg"
   inkscape:version="1.4 (86a8ad7, 2024-10-11)"
   xmlns:inkscape="http://www.inkscape.org/namespaces/inkscape"
   xmlns:sodipodi="http://sodipodi.sourceforge.net/DTD/sodipodi-0.dtd"
   xmlns="http://www.w3.org/2000/svg"
   xmlns:svg="http://www.w3.org/2000/svg">
  <defs
     id="defs2" />
  <sodipodi:namedview
     id="namedview2"
     pagecolor="#505050"
     bordercolor="#ffffff"
     borderopacity="1"
     inkscape:showpageshadow="0"
     inkscape:pageopacity="0"
     inkscape:pagecheckerboard="1"
     inkscape:deskcolor="#505050"
     inkscape:zoom="11.313709"
     inkscape:cx="26.825863"
     inkscape:cy="25.765203"
     inkscape:window-width="1920"
     inkscape:window-height="1057"
     inkscape:window-x="1912"
     inkscape:window-y="-8"
     inkscape:window-maximized="1"
     inkscape:current-layer="svg2" />
  <path
     id="path1"
     style="fill:#ffffff;fill-opacity:1;stroke-width:0.999996"
     d="m 31.960938,0 c 0,0 -20.005563,0.039484 -24.976563,1.396473 A 8.06,8.0599325 0 0 0 1.3144531,7.066347 C -5.46875e-4,12.037306 0,22.4295 0,22.4295 c 0,0 -5.3125e-4,10.39321 1.3554688,15.404168 a 8.06,8.0599325 0 0 0 5.6699218,5.667921 C 11.995391,44.858578 32,44.859 32,44.859 c 0,0 20.005562,5.31e-4 24.976562,-1.355458 a 8.06,8.0599325 0 0 0 5.667969,-5.669874 C 63.999531,32.862709 64,22.4295 64,22.4295 c 0,0 -0.03948,-10.39321 -1.396484,-15.404168 A 8.06,8.0599325 0 0 0 56.933594,1.35741 C 51.963594,4.219e-4 31.960938,0 31.960938,0 Z M 25.591797,12.818252 42.1875,22.4295 25.591797,32.040747 Z" />
</svg>
